HIERARCHY
ROOT Hips
{
	OFFSET -11.436461 82.710243 35.849243
	CHANNELS 6 Xposition Yposition Zposition Zrotation Yrotation Xrotation 
	JOINT Spine
	{
		OFFSET -0.000000 8.814246 -2.080107
		CHANNELS 3 Zrotation Yrotation Xrotation
		JOINT Spine1
		{
			OFFSET -0.000000 8.844141 0.000000
			CHANNELS 3 Zrotation Yrotation Xrotation
			JOINT Spine2
			{
				OFFSET 0.000000 11.682268 0.000000
				CHANNELS 3 Zrotation Yrotation Xrotation
				JOINT Spine3
				{
					OFFSET 0.000000 11.746700 0.000000
					CHANNELS 3 Zrotation Yrotation Xrotation
					JOINT Neck
					{
						OFFSET -0.000000 17.658264 -0.000000
						CHANNELS 3 Zrotation Yrotation Xrotation
						JOINT Neck1
						{
							OFFSET 0.000000 5.101515 0.000000
							CHANNELS 3 Zrotation Yrotation Xrotation
							JOINT Head
							{
								OFFSET 0.000000 5.101515 0.000000
								CHANNELS 3 Zrotation Yrotation Xrotation
								JOINT HeadEnd
								{
									OFFSET 0.000000 11.655085 -0.000000
									CHANNELS 3 Zrotation Yrotation Xrotation
									End Site
									{
										OFFSET 0.000000 0.000000 0.000000
									}
								}
							}
						}
					}
					JOINT RightShoulder
					{
						OFFSET -2.625389 11.175210 -0.000000
						CHANNELS 3 Zrotation Yrotation Xrotation
						JOINT RightArm
						{
							OFFSET -0.000000 10.434715 -0.000000
							CHANNELS 3 Zrotation Yrotation Xrotation
							JOINT RightForeArm
							{
								OFFSET 0.000000 29.628420 0.000000
								CHANNELS 3 Zrotation Yrotation Xrotation
								JOINT RightHand
								{
									OFFSET -0.000000 22.857611 -0.000000
									CHANNELS 3 Zrotation Yrotation Xrotation
									JOINT RightHandThumb1
									{
										OFFSET -2.867323 3.959563 2.944291
										CHANNELS 3 Zrotation Yrotation Xrotation
										JOINT RightHandThumb2
										{
											OFFSET 0.000000 3.350399 0.000000
											CHANNELS 3 Zrotation Yrotation Xrotation
											JOINT RightHandThumb3
											{
												OFFSET 0.000000 3.756509 -0.000000
												CHANNELS 3 Zrotation Yrotation Xrotation
												JOINT RightHandThumb4
												{
													OFFSET 0.000000 3.147345 0.000000
													CHANNELS 3 Zrotation Yrotation Xrotation
													End Site
													{
														OFFSET 0.000000 0.000000 0.000000
													}
												}
											}
										}
									}
									JOINT RightHandIndex1
									{
										OFFSET -0.086752 10.030893 2.345280
										CHANNELS 3 Zrotation Yrotation Xrotation
										JOINT RightHandIndex2
										{
											OFFSET 0.000000 4.061090 0.000000
											CHANNELS 3 Zrotation Yrotation Xrotation
											JOINT RightHandIndex3
											{
												OFFSET 0.000000 3.248873 0.000000
												CHANNELS 3 Zrotation Yrotation Xrotation
												JOINT RightHandIndex4
												{
													OFFSET 0.000000 2.639709 0.000000
													CHANNELS 3 Zrotation Yrotation Xrotation
													End Site
													{
														OFFSET 0.000000 0.000000 0.000000
													}
												}
											}
										}
									}
									JOINT RightHandMiddle1
									{
										OFFSET 0.104102 9.502952 0.006768
										CHANNELS 3 Zrotation Yrotation Xrotation
										JOINT RightHandMiddle2
										{
											OFFSET 0.000000 4.568727 0.000000
											CHANNELS 3 Zrotation Yrotation Xrotation
											JOINT RightHandMiddle3
											{
												OFFSET -0.000000 3.654981 -0.000000
												CHANNELS 3 Zrotation Yrotation Xrotation
												JOINT RightHandMiddle4
												{
													OFFSET 0.000000 2.741236 0.000000
													CHANNELS 3 Zrotation Yrotation Xrotation
													End Site
													{
														OFFSET 0.000000 0.000000 0.000000
													}
												}
											}
										}
									}
									JOINT RightHandRing1
									{
										OFFSET 0.086752 8.921708 -2.267442
										CHANNELS 3 Zrotation Yrotation Xrotation
										JOINT RightHandRing2
										{
											OFFSET -0.000000 4.061090 0.000000
											CHANNELS 3 Zrotation Yrotation Xrotation
											JOINT RightHandRing3
											{
												OFFSET -0.000000 3.654981 -0.000000
												CHANNELS 3 Zrotation Yrotation Xrotation
												JOINT RightHandRing4
												{
													OFFSET 0.000000 2.741236 0.000000
													CHANNELS 3 Zrotation Yrotation Xrotation
													End Site
													{
														OFFSET 0.000000 0.000000 0.000000
													}
												}
											}
										}
									}
									JOINT RightHandPinky1
									{
										OFFSET -0.173504 7.976997 -4.467199
										CHANNELS 3 Zrotation Yrotation Xrotation
										JOINT RightHandPinky2
										{
											OFFSET 0.000000 3.350399 0.000000
											CHANNELS 3 Zrotation Yrotation Xrotation
											JOINT RightHandPinky3
											{
												OFFSET 0.000000 2.842763 0.000000
												CHANNELS 3 Zrotation Yrotation Xrotation
												JOINT RightHandPinky4
												{
													OFFSET 0.000000 2.639709 0.000000
													CHANNELS 3 Zrotation Yrotation Xrotation
													End Site
													{
														OFFSET 0.000000 0.000000 0.000000
													}
												}
											}
										}
									}
									JOINT RightForeArmEnd
									{
										OFFSET 0.000000 0.000000 0.000000
										CHANNELS 3 Zrotation Yrotation Xrotation
										End Site
										{
											OFFSET 0.000000 0.000000 0.000000
										}
									}
								}
								JOINT RightArmEnd
								{
									OFFSET 0.000000 0.000000 0.000000
									CHANNELS 3 Zrotation Yrotation Xrotation
									End Site
									{
										OFFSET 0.000000 0.000000 0.000000
									}
								}
							}
						}
					}
					JOINT LeftShoulder
					{
						OFFSET 2.625389 11.175210 -0.000000
						CHANNELS 3 Zrotation Yrotation Xrotation
						JOINT LeftArm
						{
							OFFSET 0.000000 10.813635 0.000000
							CHANNELS 3 Zrotation Yrotation Xrotation
							JOINT LeftForeArm
							{
								OFFSET 0.000000 28.724781 -0.000000
								CHANNELS 3 Zrotation Yrotation Xrotation
								JOINT LeftHand
								{
									OFFSET 0.644384 25.716167 -0.328871
									CHANNELS 3 Zrotation Yrotation Xrotation
									JOINT LeftHandThumb1
									{
										OFFSET 2.867323 3.959563 2.944291
										CHANNELS 3 Zrotation Yrotation Xrotation
										JOINT LeftHandThumb2
										{
											OFFSET -0.000000 3.350399 -0.000000
											CHANNELS 3 Zrotation Yrotation Xrotation
											JOINT LeftHandThumb3
											{
												OFFSET 0.000000 3.756509 -0.000000
												CHANNELS 3 Zrotation Yrotation Xrotation
												JOINT LeftHandThumb4
												{
													OFFSET 0.000000 3.100000 -0.000000
													CHANNELS 3 Zrotation Yrotation Xrotation
													End Site
													{
														OFFSET 0.000000 0.000000 0.000000
													}
												}
											}
										}
									}
									JOINT LeftHandIndex1
									{
										OFFSET 0.086752 10.030893 2.345280
										CHANNELS 3 Zrotation Yrotation Xrotation
										JOINT LeftHandIndex2
										{
											OFFSET -0.000000 4.061090 0.000000
											CHANNELS 3 Zrotation Yrotation Xrotation
											JOINT LeftHandIndex3
											{
												OFFSET -0.000000 3.248873 0.000000
												CHANNELS 3 Zrotation Yrotation Xrotation
												JOINT LeftHandIndex4
												{
													OFFSET 0.000000 2.639709 -0.000000
													CHANNELS 3 Zrotation Yrotation Xrotation
													End Site
													{
														OFFSET 0.000000 0.000000 0.000000
													}
												}
											}
										}
									}
									JOINT LeftHandMiddle1
									{
										OFFSET -0.104102 9.502952 0.006768
										CHANNELS 3 Zrotation Yrotation Xrotation
										JOINT LeftHandMiddle2
										{
											OFFSET -0.000000 4.568727 0.000000
											CHANNELS 3 Zrotation Yrotation Xrotation
											JOINT LeftHandMiddle3
											{
												OFFSET 0.000000 3.654981 -0.000000
												CHANNELS 3 Zrotation Yrotation Xrotation
												JOINT LeftHandMiddle4
												{
													OFFSET -0.000000 2.741236 0.000000
													CHANNELS 3 Zrotation Yrotation Xrotation
													End Site
													{
														OFFSET 0.000000 0.000000 0.000000
													}
												}
											}
										}
									}
									JOINT LeftHandRing1
									{
										OFFSET -0.086752 8.921708 -2.267442
										CHANNELS 3 Zrotation Yrotation Xrotation
										JOINT LeftHandRing2
										{
											OFFSET -0.000000 4.061090 0.000000
											CHANNELS 3 Zrotation Yrotation Xrotation
											JOINT LeftHandRing3
											{
												OFFSET 0.000000 3.654981 -0.000000
												CHANNELS 3 Zrotation Yrotation Xrotation
												JOINT LeftHandRing4
												{
													OFFSET 0.000000 2.741236 -0.000000
													CHANNELS 3 Zrotation Yrotation Xrotation
													End Site
													{
														OFFSET 0.000000 0.000000 0.000000
													}
												}
											}
										}
									}
									JOINT LeftHandPinky1
									{
										OFFSET 0.173504 7.976997 -4.467199
										CHANNELS 3 Zrotation Yrotation Xrotation
										JOINT LeftHandPinky2
										{
											OFFSET 0.000000 3.350399 0.000000
											CHANNELS 3 Zrotation Yrotation Xrotation
											JOINT LeftHandPinky3
											{
												OFFSET -0.000000 2.842763 0.000000
												CHANNELS 3 Zrotation Yrotation Xrotation
												JOINT LeftHandPinky4
												{
													OFFSET 0.000000 2.639709 -0.000000
													CHANNELS 3 Zrotation Yrotation Xrotation
													End Site
													{
														OFFSET 0.000000 0.000000 0.000000
													}
												}
											}
										}
									}
									JOINT LeftForeArmEnd
									{
										OFFSET 0.000000 0.000000 0.000000
										CHANNELS 3 Zrotation Yrotation Xrotation
										End Site
										{
											OFFSET 0.000000 0.000000 0.000000
										}
									}
								}
								JOINT LeftArmEnd
								{
									OFFSET 0.000000 0.000000 0.000000
									CHANNELS 3 Zrotation Yrotation Xrotation
									End Site
									{
										OFFSET 0.000000 0.000000 0.000000
									}
								}
							}
						}
					}
				}
			}
		}
	}
	JOINT RightUpLeg
	{
		OFFSET -11.289943 0.000000 -0.000000
		CHANNELS 3 Zrotation Yrotation Xrotation
		JOINT RightLeg
		{
			OFFSET 0.000000 -38.200325 0.000000
			CHANNELS 3 Zrotation Yrotation Xrotation
			JOINT RightFoot
			{
				OFFSET -0.000000 -39.900856 0.000000
				CHANNELS 3 Zrotation Yrotation Xrotation
				JOINT RightToeBase
				{
					OFFSET -0.000000 -0.000000 15.261641
					CHANNELS 3 Zrotation Yrotation Xrotation
					JOINT RightToeBaseEnd
					{
						OFFSET -0.000000 0.000000 7.370709
						CHANNELS 3 Zrotation Yrotation Xrotation
						End Site
						{
							OFFSET 0.000000 0.000000 0.000000
						}
					}
				}
				JOINT RightLegEnd
				{
					OFFSET 0.000000 0.000000 0.000000
					CHANNELS 3 Zrotation Yrotation Xrotation
					End Site
					{
						OFFSET 0.000000 0.000000 0.000000
					}
				}
			}
			JOINT RightUpLegEnd
			{
				OFFSET 0.000000 0.000000 0.000000
				CHANNELS 3 Zrotation Yrotation Xrotation
				End Site
				{
					OFFSET 0.000000 0.000000 0.000000
				}
			}
		}
	}
	JOINT LeftUpLeg
	{
		OFFSET 11.315661 0.000000 -0.000000
		CHANNELS 3 Zrotation Yrotation Xrotation
		JOINT LeftLeg
		{
			OFFSET -0.000000 -38.200325 0.000000
			CHANNELS 3 Zrotation Yrotation Xrotation
			JOINT LeftFoot
			{
				OFFSET 0.000000 -39.900856 0.000000
				CHANNELS 3 Zrotation Yrotation Xrotation
				JOINT LeftToeBase
				{
					OFFSET -0.000000 -0.000000 15.261641
					CHANNELS 3 Zrotation Yrotation Xrotation
					JOINT LeftToeBaseEnd
					{
						OFFSET 0.000000 -0.000000 7.539996
						CHANNELS 3 Zrotation Yrotation Xrotation
						End Site
						{
							OFFSET 0.000000 0.000000 0.000000
						}
					}
				}
				JOINT LeftLegEnd
				{
					OFFSET 0.000000 0.000000 0.000000
					CHANNELS 3 Zrotation Yrotation Xrotation
					End Site
					{
						OFFSET 0.000000 0.000000 0.000000
					}
				}
			}
			JOINT LeftUpLegEnd
			{
				OFFSET 0.000000 0.000000 0.000000
				CHANNELS 3 Zrotation Yrotation Xrotation
				End Site
				{
					OFFSET 0.000000 0.000000 0.000000
				}
			}
		}
	}
}
MOTION
Frames: 5
Frame Time: 0.016667
-11.436461 82.710243 35.849243 2.032731 6.635799 2.645690 3.734332 -0.445721 6.803300 5.042099 -1.878800 16.530449 4.273708 -1.448201 21.090052 0.669539 0.632407 3.259931 11.483554 -3.108966 22.890196 -2.640460 -0.851986 2.322923 1.062940 3.152821 -17.626045 0.000000 0.000000 0.000000 90.546989 -0.141855 13.246015 35.926601 -22.977018 26.884926 2.246080 29.998835 42.506916 1.108937 8.433162 -8.824234 11.536112 -1.910869 39.476410 0.000000 0.000000 -28.080000 -0.000000 0.000000 -19.500000 0.000000 -0.000000 0.000000 19.396357 0.000000 -5.820735 13.577449 0.000000 -0.000000 13.577449 -0.000000 0.000000 0.000000 0.000000 0.000000 18.654980 0.000000 -7.256525 13.058486 -0.000000 -0.000000 13.058486 0.000000 0.000000 -0.000000 0.000000 -0.000000 17.401995 0.000000 -7.461920 12.181396 0.000000 0.000000 12.181396 0.000000 0.000000 0.000000 0.000000 0.000000 15.463103 0.000000 -9.822108 10.824172 0.000000 0.000000 10.824172 -0.000000 0.000000 -0.000000 -0.000000 -0.000000 0.000000 -0.000000 -0.000000 0.000000 -0.000000 -0.000000 -90.978630 0.265722 12.662210 -33.668358 42.855648 39.912174 -0.516243 -13.860464 53.033997 -2.322723 -10.689929 -9.362335 -10.039283 1.787270 40.137466 -0.000000 0.000000 -24.480000 -0.000000 -0.000000 -17.000000 -0.000000 0.000000 0.000000 -18.278723 -0.000000 -8.267144 -12.795105 0.000000 -0.000000 -12.795105 -0.000000 -0.000000 0.000000 0.000000 -0.000000 -17.655144 -0.000000 -9.564408 -12.358602 -0.000000 -0.000000 -12.358602 -0.000000 0.000000 -0.000000 0.000000 -0.000000 -16.615107 -0.000000 -8.912211 -11.630575 0.000000 -0.000000 -11.630575 0.000000 0.000000 0.000000 0.000000 0.000000 -14.523021 0.000000 -8.975810 -10.166114 -0.000000 -0.000000 -10.166114 0.000000 0.000000 0.000000 0.000000 0.000000 0.000000 0.000000 -0.000000 -0.000000 -0.000000 -0.000000 4.025970 -5.633469 -26.503305 0.472579 0.450498 46.371223 -6.393432 -19.081911 7.924870 3.366617 -1.359888 -32.332020 0.000000 -0.000000 0.000000 -0.000000 0.000000 -0.000000 -0.000000 -0.000000 -0.000000 8.956800 12.532429 -30.400499 0.214361 0.238261 41.977440 -5.258443 -1.381363 24.334078 1.611453 -1.356210 -33.121170 0.000000 -0.000000 0.000000 -0.000000 0.000000 0.000000 -0.000000 -0.000000 0.000000 
-11.408134 82.605682 35.538841 2.232923 6.207159 3.581287 3.678549 -0.442708 6.806801 5.038625 -1.874762 16.701883 4.112952 -1.429135 20.951464 0.661788 0.619207 3.288366 11.337062 -3.154006 23.386675 -2.666061 -0.978445 2.723060 1.066067 3.127088 -17.538322 0.000000 0.000000 0.000000 90.328957 -0.087059 13.188706 36.074291 -21.900337 26.557344 2.307695 30.394041 42.474319 0.984549 8.820773 -8.876352 11.536112 -1.910869 39.476410 -0.000000 -0.000000 -28.080000 0.000000 -0.000000 -19.500000 -0.000000 -0.000000 -0.000000 19.433538 0.000000 -5.857822 13.603477 0.000000 0.000000 13.603477 0.000000 -0.000000 -0.000000 -0.000000 0.000000 18.668093 0.000000 -7.323967 13.067664 -0.000000 -0.000000 13.067664 0.000000 0.000000 0.000000 0.000000 0.000000 17.360912 0.000000 -7.539293 12.152638 -0.000000 -0.000000 12.152638 0.000000 0.000000 -0.000000 -0.000000 -0.000000 15.370496 0.000000 -9.891028 10.759347 0.000000 0.000000 10.759347 0.000000 0.000000 0.000000 -0.000000 0.000000 0.000000 -0.000000 -0.000000 0.000000 -0.000000 -0.000000 -90.934570 0.255869 12.773971 -33.448292 42.149967 40.359165 -0.494184 -14.096204 52.939857 -2.108887 -10.803822 -9.417908 -10.039283 1.787270 40.137466 0.000000 0.000000 -24.480000 0.000000 -0.000000 -17.000000 0.000000 -0.000000 0.000000 -17.917912 0.000000 -8.498986 -12.542539 -0.000000 -0.000000 -12.542539 -0.000000 -0.000000 -0.000000 -0.000000 -0.000000 -17.334919 0.000000 -9.763765 -12.134443 -0.000000 -0.000000 -12.134443 -0.000000 -0.000000 0.000000 0.000000 0.000000 -16.371399 0.000000 -9.077759 -11.459979 0.000000 -0.000000 -11.459979 -0.000000 0.000000 0.000000 -0.000000 0.000000 -14.355889 0.000000 -9.113889 -10.049122 -0.000000 -0.000000 -10.049122 0.000000 -0.000000 0.000000 0.000000 0.000000 0.000000 0.000000 -0.000000 -0.000000 -0.000000 -0.000000 3.863599 -5.304998 -28.196884 0.541231 0.500288 47.252556 -6.438132 -18.909138 8.185398 3.544583 -1.438484 -32.863979 0.000000 -0.000000 0.000000 -0.000000 -0.000000 0.000000 0.000000 -0.000000 0.000000 8.629046 12.536176 -31.757137 0.158443 0.172927 42.497871 -5.419476 -0.989574 24.696920 1.669426 -1.386862 -33.194489 0.000000 -0.000000 0.000000 -0.000000 0.000000 0.000000 -0.000000 -0.000000 0.000000 
-11.377568 82.501389 35.238243 2.419674 5.813687 4.497169 3.628606 -0.443168 6.812199 5.021344 -1.861521 16.874710 3.999491 -1.426004 20.823605 0.658031 0.606464 3.307226 11.190162 -3.194592 23.854895 -2.679299 -1.076613 3.091812 1.072829 3.104966 -17.462618 0.000000 -0.000000 0.000000 90.108536 -0.032156 13.143683 36.106979 -20.959929 26.222403 2.382800 30.750065 42.451218 0.900396 8.656624 -9.012834 11.536112 -1.910869 39.476410 -0.000000 -0.000000 -28.080000 0.000000 -0.000000 -19.500000 -0.000000 -0.000000 0.000000 19.306309 -0.000000 -5.696726 13.514417 0.000000 0.000000 13.514417 0.000000 0.000000 -0.000000 -0.000000 -0.000000 18.549616 -0.000000 -7.224655 12.984731 0.000000 0.000000 12.984731 -0.000000 0.000000 0.000000 -0.000000 0.000000 17.253464 -0.000000 -7.482219 12.077424 -0.000000 -0.000000 12.077424 -0.000000 0.000000 -0.000000 0.000000 -0.000000 15.271145 -0.000000 -9.847507 10.689801 -0.000000 0.000000 10.689801 0.000000 0.000000 0.000000 -0.000000 0.000000 0.000000 -0.000000 -0.000000 0.000000 -0.000000 -0.000000 -90.852303 0.237068 12.907075 -33.130356 41.472900 40.917805 -0.471036 -14.398947 52.832577 -1.979736 -10.184541 -9.607086 -10.039283 1.787270 40.137466 -0.000000 0.000000 -24.480000 -0.000000 0.000000 -17.000000 0.000000 0.000000 -0.000000 -17.636694 0.000000 -8.635803 -12.345685 -0.000000 0.000000 -12.345685 0.000000 0.000000 0.000000 0.000000 0.000000 -17.101978 0.000000 -9.869181 -11.971385 -0.000000 -0.000000 -11.971385 0.000000 0.000000 -0.000000 0.000000 0.000000 -16.231588 0.000000 -9.142099 -11.362112 -0.000000 -0.000000 -11.362112 0.000000 -0.000000 0.000000 0.000000 0.000000 -14.303213 0.000000 -9.138835 -10.012249 -0.000000 -0.000000 -10.012249 0.000000 -0.000000 0.000000 -0.000000 0.000000 0.000000 0.000000 -0.000000 -0.000000 -0.000000 -0.000000 3.706759 -5.027176 -29.839079 0.609245 0.547006 48.082912 -6.488590 -18.728142 8.440823 3.713620 -1.515996 -33.403435 0.000000 -0.000000 0.000000 -0.000000 0.000000 -0.000000 0.000000 0.000000 0.000000 8.347611 12.513843 -33.071175 0.103809 0.111424 42.976749 -5.582982 -0.721514 25.046806 1.745979 -1.402893 -33.241032 -0.000000 0.000000 0.000000 -0.000000 0.000000 0.000000 -0.000000 -0.000000 0.000000 
-11.343704 82.393326 34.948177 2.592740 5.450834 5.385866 3.594489 -0.445355 6.833034 4.999117 -1.843833 17.055376 3.911647 -1.422097 20.691956 0.657923 0.602743 3.315128 11.066031 -3.243925 24.272743 -2.678448 -1.134383 3.417156 1.088399 3.076799 -17.373915 0.000000 0.000000 0.000000 89.914536 0.016288 13.111280 35.999424 -20.207766 25.853245 2.479877 31.137199 42.451485 0.893540 7.968285 -9.204448 11.236528 -1.888869 39.607235 0.000000 0.000000 -27.360001 -0.000000 -0.000000 -19.000000 -0.000000 -0.000000 0.000000 18.889448 -0.000000 -5.467666 13.222614 -0.000000 0.000000 13.222614 -0.000000 -0.000000 -0.000000 -0.000000 0.000000 18.183325 -0.000000 -7.036983 12.728328 -0.000000 0.000000 12.728328 -0.000000 -0.000000 0.000000 0.000000 0.000000 16.983301 -0.000000 -7.313737 11.888310 -0.000000 -0.000000 11.888310 -0.000000 -0.000000 0.000000 0.000000 0.000000 15.101113 -0.000000 -9.682147 10.570779 -0.000000 0.000000 10.570779 -0.000000 0.000000 -0.000000 -0.000000 0.000000 0.000000 -0.000000 -0.000000 0.000000 -0.000000 -0.000000 -90.730980 0.208815 13.076575 -32.715717 40.815956 41.568886 -0.452267 -14.705162 52.717987 -1.861084 -9.374162 -9.881378 -10.039283 1.787270 40.137466 0.000000 0.000000 -24.480000 0.000000 -0.000000 -17.000000 0.000000 0.000000 0.000000 -17.460392 -0.000000 -8.828856 -12.222275 -0.000000 -0.000000 -12.222275 0.000000 -0.000000 0.000000 0.000000 0.000000 -16.948166 -0.000000 -10.032579 -11.863716 0.000000 -0.000000 -11.863716 -0.000000 0.000000 0.000000 0.000000 0.000000 -16.121805 -0.000000 -9.242375 -11.285264 0.000000 -0.000000 -11.285264 -0.000000 -0.000000 -0.000000 0.000000 0.000000 -14.235250 -0.000000 -9.164448 -9.964676 0.000000 -0.000000 -9.964676 -0.000000 0.000000 0.000000 -0.000000 0.000000 0.000000 -0.000000 -0.000000 -0.000000 -0.000000 -0.000000 3.557291 -4.800798 -31.432161 0.676495 0.590535 48.882484 -6.543935 -18.533215 8.683049 3.870762 -1.592200 -33.925236 0.000000 0.000000 0.000000 -0.000000 0.000000 -0.000000 0.000000 0.000000 0.000000 8.123180 12.392762 -34.356842 0.048390 0.051074 43.456619 -5.775235 -0.466958 25.382683 1.822183 -1.407048 -33.282314 0.000000 -0.000000 0.000000 -0.000000 0.000000 0.000000 -0.000000 -0.000000 0.000000 
-11.303465 82.280457 34.661453 2.770684 5.122652 6.267943 3.559060 -0.449248 6.870957 4.983923 -1.828965 17.226734 3.832479 -1.419340 20.541008 0.659796 0.603189 3.315996 10.976260 -3.301170 24.649590 -2.673282 -1.164290 3.724999 1.099583 3.045428 -17.288258 -0.000000 0.000000 -0.000000 89.717766 0.065318 13.097722 35.773769 -19.700998 25.472204 2.597179 31.560898 42.445755 0.811802 7.173687 -9.413895 11.236528 -1.888869 39.607235 -0.000000 -0.000000 -27.360001 0.000000 0.000000 -19.000000 0.000000 -0.000000 -0.000000 18.365675 0.000000 -5.596111 12.855972 0.000000 -0.000000 12.855972 -0.000000 0.000000 -0.000000 -0.000000 0.000000 17.712303 0.000000 -7.103332 12.398612 -0.000000 0.000000 12.398612 -0.000000 -0.000000 0.000000 0.000000 0.000000 16.612814 0.000000 -7.278282 11.628970 0.000000 -0.000000 11.628970 -0.000000 -0.000000 -0.000000 0.000000 0.000000 14.839310 0.000000 -9.567803 10.387517 -0.000000 0.000000 10.387517 0.000000 -0.000000 -0.000000 -0.000000 -0.000000 0.000000 -0.000000 -0.000000 0.000000 -0.000000 -0.000000 -90.559891 0.166978 13.265106 -32.263199 40.139542 42.265480 -0.435819 -14.931934 52.600670 -1.754333 -8.600050 -10.193756 -10.039283 1.787270 40.137466 -0.000000 0.000000 -24.480000 0.000000 -0.000000 -17.000000 -0.000000 0.000000 0.000000 -17.284468 0.000000 -9.080929 -12.099128 0.000000 -0.000000 -12.099128 -0.000000 0.000000 -0.000000 -0.000000 -0.000000 -16.788181 0.000000 -10.255677 -11.751727 0.000000 0.000000 -11.751727 -0.000000 0.000000 -0.000000 0.000000 -0.000000 -15.992498 -0.000000 -9.393641 -11.194749 0.000000 0.000000 -11.194749 -0.000000 -0.000000 0.000000 0.000000 0.000000 -14.134746 -0.000000 -9.228658 -9.894321 0.000000 0.000000 -9.894321 0.000000 -0.000000 0.000000 -0.000000 -0.000000 0.000000 0.000000 -0.000000 -0.000000 -0.000000 -0.000000 3.398766 -4.629365 -33.014526 0.743707 0.631251 49.677895 -6.600646 -18.323284 8.912629 4.014748 -1.665420 -34.395832 0.000000 0.000000 0.000000 -0.000000 0.000000 -0.000000 -0.000000 -0.000000 -0.000000 7.901182 12.232318 -35.650475 -0.011058 -0.011464 43.943939 -5.969039 -0.194912 25.720295 1.889026 -1.401630 -33.310478 -0.000000 0.000000 0.000000 -0.000000 0.000000 0.000000 -0.000000 -0.000000 0.000000 
